<svg width="500" height="303" viewBox="0 0 500 303" fill="none" xmlns="http://www.w3.org/2000/svg">
<g clip-path="url(#clip0)">
<path d="M287.888 113.722C297.017 113.722 304.417 106.322 304.417 97.1935C304.417 88.0651 297.017 80.665 287.888 80.665C278.76 80.665 271.36 88.0651 271.36 97.1935C271.36 106.322 278.76 113.722 287.888 113.722Z" fill="#2F2E41"/>
<path d="M292.493 81.12C295.354 81.1204 298.165 81.863 300.652 83.2753C303.14 84.6876 305.218 86.7212 306.685 89.1773C308.151 91.6334 308.955 94.4279 309.018 97.2877C309.08 100.147 308.4 102.975 307.043 105.493C308.476 103.7 309.52 101.628 310.108 99.4095C310.696 97.191 310.815 94.8742 310.459 92.6069C310.102 90.3396 309.277 88.1715 308.036 86.2408C306.795 84.31 305.165 82.659 303.25 81.3929C301.336 80.1268 299.179 79.2734 296.917 78.887C294.654 78.5007 292.336 78.5899 290.11 79.1489C287.884 79.708 285.799 80.7247 283.987 82.1342C282.176 83.5436 280.678 85.315 279.589 87.3354C281.134 85.3957 283.097 83.8294 285.331 82.7533C287.565 81.6771 290.013 81.1189 292.493 81.12Z" fill="#2F2E41"/>
<path d="M257.002 97.1585C283.817 97.1585 305.555 75.4208 305.555 48.606C305.555 21.7913 283.817 0.0535927 257.002 0.0535927C230.187 0.0535927 208.45 21.7913 208.45 48.606C208.45 75.4208 230.187 97.1585 257.002 97.1585Z" fill="#2F2E41"/>
<path d="M218.896 18.4816C227.262 9.07287 238.957 3.28258 251.511 2.33275C264.065 1.38292 276.498 5.34786 286.184 13.3908C285.787 13.0133 285.394 12.6329 284.982 12.2661C275.357 3.71416 262.73 -0.664948 249.877 0.09189C237.025 0.848728 224.999 6.67954 216.445 16.302C207.89 25.9244 203.508 38.5504 204.262 51.4033C205.016 64.2562 210.844 76.2834 220.465 84.8398C220.877 85.2066 221.301 85.5521 221.722 85.9022C212.6 77.2246 207.206 65.3424 206.679 52.7632C206.152 40.184 210.532 27.8921 218.896 18.4816Z" fill="#2F2E41"/>
<path d="M256.591 96.747C273.861 96.747 287.862 82.7465 287.862 65.476C287.862 48.2054 273.861 34.2049 256.591 34.2049C239.32 34.2049 225.32 48.2054 225.32 65.476C225.32 82.7465 239.32 96.747 256.591 96.747Z" fill="#FFB8B8"/>
<path d="M234.372 75.351C234.372 75.351 238.486 113.205 231.903 117.32C225.32 121.435 269.757 127.195 269.757 127.195C269.757 127.195 263.174 86.049 279.633 75.351H234.372Z" fill="#FFB8B8"/>
<path d="M273.872 110.737C273.872 110.737 286.126 105.015 268.478 107.053C250.83 109.091 235.604 101.273 235.604 101.273C235.604 101.273 230.257 95.9241 229.434 101.685C228.611 107.445 231.903 118.143 213.799 119.789C195.694 121.435 179.236 116.497 172.652 128.841C166.069 141.185 169.361 194.675 169.361 194.675C169.361 194.675 181.705 239.113 191.58 245.696C201.455 252.279 287.862 243.227 287.862 243.227L312.549 198.789V146.945C312.549 146.945 309.258 128.841 286.216 133.779C286.216 133.779 271.403 130.487 272.226 123.081C273.049 115.674 273.872 110.737 273.872 110.737Z" fill="#D0CDE1"/>
<path d="M194.846 277.144C195.354 274.928 195.695 273.674 195.695 273.674L195.431 271.871L192.72 253.461L191.58 245.695C201.453 241.581 203.924 222.653 203.924 222.653L204.296 222.43L205.981 221.422V221.417L212.03 217.789L212.153 217.716L214.596 219.342L219.559 222.653C236.925 235.423 254.609 235.196 265.522 233.184C272.193 231.953 276.34 230.059 276.34 230.059L288.311 226.068L288.683 225.945L289.051 226L296.072 227.062L296.199 227.085L296.78 227.171L295.154 238.411L292.797 254.746C299.024 258.043 304.559 264.237 309.4 271.871C310.472 273.561 311.511 275.318 312.516 277.144C313.824 279.505 315.073 281.962 316.262 284.478C316.408 284.778 316.549 285.082 316.689 285.386C317.148 286.372 317.602 287.366 318.043 288.366H192.666C192.829 287.362 192.993 286.404 193.152 285.482C193.16 285.45 193.166 285.419 193.17 285.386C193.229 285.078 193.283 284.778 193.333 284.478C193.887 281.481 194.423 278.979 194.846 277.144Z" fill="#2F2E41"/>
<path d="M189.934 118.966C189.934 118.966 198.986 135.424 195.695 155.997C192.403 176.571 205.57 227.592 205.57 227.592L215.445 225.123C215.445 225.123 208.861 182.331 210.507 172.456C212.153 162.581 212.153 123.903 203.924 118.966C195.695 114.028 189.934 118.966 189.934 118.966Z" fill="#2F2E41"/>
<path d="M285.637 136.07L289.096 227.18L295.679 231.295C295.679 231.295 305.143 131.31 300.206 131.31H290.159C289.545 131.31 288.937 131.435 288.373 131.677C287.808 131.919 287.299 132.274 286.876 132.719C286.453 133.164 286.125 133.691 285.912 134.267C285.699 134.843 285.606 135.456 285.637 136.07Z" fill="#2F2E41"/>
<path d="M210.096 225.534C212.368 225.534 214.21 223.692 214.21 221.42C214.21 219.147 212.368 217.305 210.096 217.305C207.823 217.305 205.981 219.147 205.981 221.42C205.981 223.692 207.823 225.534 210.096 225.534Z" fill="#00B0FF"/>
<path d="M292.388 229.649C294.66 229.649 296.502 227.807 296.502 225.534C296.502 223.262 294.66 221.42 292.388 221.42C290.115 221.42 288.273 223.262 288.273 225.534C288.273 227.807 290.115 229.649 292.388 229.649Z" fill="#00B0FF"/>
<path d="M229.845 26.3869V57.658H237.088L246.304 47.7829L245.07 57.658H277.081L275.106 47.7829L279.056 57.658H284.158V26.3869H229.845Z" fill="#2F2E41"/>
<path d="M224.908 63.4186C226.272 63.4186 227.377 61.3923 227.377 58.8926C227.377 56.3929 226.272 54.3665 224.908 54.3665C223.545 54.3665 222.439 56.3929 222.439 58.8926C222.439 61.3923 223.545 63.4186 224.908 63.4186Z" fill="#FFB8B8"/>
<path d="M288.273 63.4186C289.637 63.4186 290.742 61.3923 290.742 58.8926C290.742 56.3929 289.637 54.3665 288.273 54.3665C286.91 54.3665 285.804 56.3929 285.804 58.8926C285.804 61.3923 286.91 63.4186 288.273 63.4186Z" fill="#FFB8B8"/>
<path d="M305.143 225.123C305.143 225.123 267.7 218.128 265.231 230.472C262.763 242.816 306.789 237.467 306.789 237.467L305.143 225.123Z" fill="#FFB8B8"/>
<path d="M304.32 140.362C304.32 140.362 394.019 211.956 377.56 229.238C361.102 246.519 298.56 241.582 298.56 241.582L302.674 221.008L338.883 216.894L320.778 198.789L304.32 200.435V140.362Z" fill="#D0CDE1"/>
<path d="M171.83 259.686L183.351 268.738C183.351 268.738 191.58 294.248 203.924 286.842C216.267 279.436 192.403 253.102 192.403 253.102L178.413 248.165L171.83 259.686Z" fill="#FFB8B8"/>
<path d="M183.351 127.195L171.861 130.653C171.861 130.653 92.0062 189.737 88.7145 206.196C85.4229 222.654 104.35 231.706 104.35 231.706L175.944 265.446L183.351 245.696L149.611 228.415C149.611 228.415 152.08 223.477 142.205 222.654C132.329 221.831 130.684 211.133 130.684 211.133C130.684 211.133 150.434 180.685 161.132 187.269C171.83 193.852 175.121 198.789 175.121 198.789L183.351 127.195Z" fill="#D0CDE1"/>
<path d="M347.23 279.964V282.721C347.231 283.477 347.091 284.227 346.816 284.932C346.694 285.246 346.547 285.55 346.376 285.841C345.835 286.749 345.067 287.501 344.147 288.024C343.228 288.546 342.188 288.82 341.131 288.82H138.338C137.28 288.82 136.241 288.546 135.321 288.024C134.402 287.501 133.634 286.749 133.093 285.841C132.921 285.55 132.774 285.246 132.652 284.932C132.377 284.227 132.237 283.477 132.239 282.721V279.964C132.239 279.163 132.396 278.37 132.703 277.63C133.009 276.89 133.458 276.217 134.025 275.651C134.591 275.085 135.263 274.635 136.004 274.329C136.744 274.022 137.537 273.865 138.338 273.865H150.027V272.58C150.027 272.546 150.034 272.513 150.046 272.483C150.059 272.452 150.078 272.424 150.102 272.4C150.125 272.376 150.153 272.358 150.184 272.345C150.215 272.332 150.248 272.326 150.281 272.326H156.38C156.414 272.326 156.447 272.332 156.478 272.345C156.509 272.358 156.537 272.376 156.56 272.4C156.584 272.424 156.603 272.452 156.616 272.483C156.628 272.513 156.635 272.546 156.635 272.58V273.865H160.445V272.58C160.445 272.546 160.451 272.513 160.464 272.483C160.477 272.452 160.496 272.424 160.519 272.4C160.543 272.376 160.571 272.358 160.602 272.345C160.633 272.332 160.666 272.326 160.699 272.326H166.798C166.832 272.326 166.865 272.332 166.896 272.345C166.927 272.358 166.955 272.376 166.978 272.4C167.002 272.424 167.021 272.452 167.033 272.483C167.046 272.513 167.053 272.546 167.053 272.58V273.865H170.867V272.58C170.867 272.546 170.874 272.513 170.887 272.483C170.899 272.452 170.918 272.424 170.942 272.4C170.965 272.376 170.993 272.358 171.024 272.345C171.055 272.332 171.088 272.326 171.122 272.326H177.221C177.254 272.326 177.287 272.332 177.318 272.345C177.349 272.358 177.377 272.376 177.401 272.4C177.424 272.424 177.443 272.452 177.456 272.483C177.468 272.513 177.475 272.546 177.475 272.58V273.865H181.285V272.58C181.285 272.546 181.292 272.513 181.304 272.483C181.317 272.452 181.336 272.424 181.359 272.4C181.383 272.376 181.411 272.358 181.442 272.345C181.473 272.332 181.506 272.326 181.539 272.326H187.638C187.672 272.326 187.705 272.332 187.736 272.345C187.767 272.358 187.795 272.376 187.818 272.4C187.842 272.424 187.861 272.452 187.873 272.483C187.886 272.513 187.893 272.546 187.893 272.58V273.865H191.703V272.58C191.703 272.546 191.709 272.513 191.722 272.483C191.735 272.452 191.754 272.424 191.777 272.4C191.801 272.376 191.829 272.358 191.86 272.345C191.891 272.332 191.924 272.326 191.957 272.326H198.056C198.09 272.326 198.123 272.332 198.154 272.345C198.184 272.358 198.213 272.376 198.236 272.4C198.26 272.424 198.279 272.452 198.291 272.483C198.304 272.513 198.311 272.546 198.311 272.58V273.865H202.125V272.58C202.125 272.546 202.132 272.513 202.144 272.483C202.157 272.452 202.176 272.424 202.2 272.4C202.223 272.376 202.251 272.358 202.282 272.345C202.313 272.332 202.346 272.326 202.38 272.326H208.479C208.512 272.326 208.545 272.332 208.576 272.345C208.607 272.358 208.635 272.376 208.659 272.4C208.682 272.424 208.701 272.452 208.714 272.483C208.726 272.513 208.733 272.546 208.733 272.58V273.865H212.543V272.58C212.543 272.546 212.55 272.513 212.562 272.483C212.575 272.452 212.594 272.424 212.617 272.4C212.641 272.376 212.669 272.358 212.7 272.345C212.731 272.332 212.764 272.326 212.797 272.326H260.572C260.606 272.326 260.639 272.332 260.669 272.345C260.7 272.358 260.728 272.376 260.752 272.4C260.776 272.424 260.794 272.452 260.807 272.483C260.82 272.513 260.826 272.546 260.826 272.58V273.865H264.641V272.58C264.641 272.546 264.648 272.513 264.66 272.483C264.673 272.452 264.692 272.424 264.715 272.4C264.739 272.376 264.767 272.358 264.798 272.345C264.829 272.332 264.862 272.326 264.895 272.326H270.994C271.062 272.326 271.126 272.353 271.174 272.401C271.221 272.448 271.248 272.513 271.249 272.58V273.865H275.059V272.58C275.059 272.546 275.065 272.513 275.078 272.483C275.091 272.452 275.11 272.424 275.133 272.4C275.157 272.376 275.185 272.358 275.216 272.345C275.247 272.332 275.28 272.326 275.313 272.326H281.412C281.446 272.326 281.479 272.332 281.51 272.345C281.541 272.358 281.569 272.376 281.592 272.4C281.616 272.424 281.635 272.452 281.647 272.483C281.66 272.513 281.667 272.546 281.667 272.58V273.865H285.477V272.58C285.477 272.546 285.483 272.513 285.496 272.483C285.509 272.452 285.527 272.424 285.551 272.4C285.575 272.376 285.603 272.358 285.634 272.345C285.665 272.332 285.698 272.326 285.731 272.326H291.83C291.863 272.326 291.897 272.332 291.927 272.345C291.958 272.358 291.986 272.376 292.01 272.4C292.034 272.424 292.052 272.452 292.065 272.483C292.078 272.513 292.084 272.546 292.084 272.58V273.865H295.899V272.58C295.899 272.546 295.906 272.513 295.918 272.483C295.931 272.452 295.95 272.424 295.973 272.4C295.997 272.376 296.025 272.358 296.056 272.345C296.087 272.332 296.12 272.326 296.153 272.326H302.252C302.319 272.326 302.383 272.354 302.43 272.401C302.476 272.449 302.503 272.513 302.502 272.58V273.865H306.317V272.58C306.317 272.546 306.323 272.513 306.336 272.483C306.349 272.452 306.368 272.424 306.391 272.4C306.415 272.376 306.443 272.358 306.474 272.345C306.505 272.332 306.538 272.326 306.571 272.326H312.67C312.704 272.326 312.737 272.332 312.768 272.345C312.798 272.358 312.827 272.376 312.85 272.4C312.874 272.424 312.893 272.452 312.905 272.483C312.918 272.513 312.925 272.546 312.924 272.58V273.865H316.735V272.58C316.735 272.546 316.741 272.513 316.754 272.483C316.767 272.452 316.785 272.424 316.809 272.4C316.833 272.376 316.861 272.358 316.892 272.345C316.922 272.332 316.956 272.326 316.989 272.326H323.088C323.121 272.326 323.154 272.332 323.185 272.345C323.216 272.358 323.244 272.376 323.268 272.4C323.292 272.424 323.31 272.452 323.323 272.483C323.336 272.513 323.342 272.546 323.342 272.58V273.865H341.131C341.932 273.865 342.725 274.022 343.465 274.329C344.205 274.635 344.877 275.085 345.444 275.651C346.01 276.217 346.459 276.89 346.766 277.63C347.072 278.37 347.23 279.163 347.23 279.964Z" fill="#3F3D56"/>
<path d="M406.198 284.93H73.3188V285.838H406.198V284.93Z" fill="#3F3D56"/>
<path d="M330.9 163.872H255.313V162.314H221.039V163.872H145.14C143.784 163.872 142.484 164.411 141.525 165.37C140.566 166.329 140.027 167.629 140.027 168.985V272.487C140.027 273.843 140.566 275.144 141.525 276.103C142.484 277.061 143.784 277.6 145.14 277.6H330.9C332.256 277.6 333.557 277.061 334.516 276.103C335.474 275.144 336.013 273.843 336.013 272.487V168.985C336.013 168.314 335.881 167.649 335.624 167.029C335.367 166.408 334.99 165.845 334.516 165.37C334.041 164.895 333.477 164.518 332.857 164.261C332.237 164.004 331.572 163.872 330.9 163.872Z" fill="#3F3D56"/>
<path d="M238.169 211.361C244.439 211.361 249.522 206.278 249.522 200.007C249.522 193.737 244.439 188.654 238.169 188.654C231.899 188.654 226.816 193.737 226.816 200.007C226.816 206.278 231.899 211.361 238.169 211.361Z" stroke="#D0CDE1" stroke-width="2" stroke-miterlimit="10"/>
<path d="M234.536 215.448C240.806 215.448 245.889 210.365 245.889 204.095C245.889 197.824 240.806 192.741 234.536 192.741C228.266 192.741 223.183 197.824 223.183 204.095C223.183 210.365 228.266 215.448 234.536 215.448Z" fill="#D0CDE1"/>
<path d="M97.6475 301.34H11.8164V302.367H97.6475V301.34Z" fill="#3F3D56"/>
<path d="M472.307 301.34H386.476V302.367H472.307V301.34Z" fill="#3F3D56"/>
<path d="M61.8251 268.264C52.7829 283.026 55.8938 301.389 55.8938 301.389C55.8938 301.389 73.6652 295.817 82.7074 281.055C91.7497 266.293 88.6387 247.93 88.6387 247.93C88.6387 247.93 70.8674 253.502 61.8251 268.264Z" fill="#3F3D56"/>
<path d="M55.5251 301.511L55.011 301.429C54.8251 301.4 36.3198 298.334 25.2371 285.074C14.1543 271.813 14.421 253.057 14.4247 252.87L14.4357 252.349L14.9498 252.431C15.1357 252.46 33.641 255.526 44.7238 268.787C55.8065 282.047 55.5398 300.802 55.5361 300.99L55.5251 301.511Z" fill="#00B0FF"/>
<path d="M56.2552 301.978L55.7585 301.822C55.5788 301.766 37.72 296.029 28.6932 281.292C19.6664 266.555 22.6702 248.04 22.7012 247.854L22.7882 247.341L23.2849 247.497C23.4645 247.553 41.3233 253.29 50.3501 268.027C59.3769 282.763 56.3731 301.279 56.3421 301.464L56.2552 301.978ZM23.5208 248.536C23.1097 251.644 21.471 267.762 29.4676 280.818C37.4646 293.873 52.568 299.736 55.5225 300.782C55.9336 297.675 57.5723 281.556 49.5758 268.501C41.5788 255.446 26.4753 249.582 23.5208 248.536H23.5208Z" fill="#3F3D56"/>
<path d="M56.4582 253.555C61.976 253.555 66.4491 249.082 66.4491 243.564C66.4491 238.046 61.976 233.573 56.4582 233.573C50.9404 233.573 46.4673 238.046 46.4673 243.564C46.4673 249.082 50.9404 253.555 56.4582 253.555Z" fill="#3F3D56"/>
<path d="M181.557 117.282L124.242 59.5145H97.1843V58.6063H124.622L124.755 58.7411L182.203 116.643L181.557 117.282Z" fill="#3F3D56"/>
<path d="M316.172 115.465L373.486 57.698H400.545V56.7897H373.107L372.974 56.9246L315.526 114.827L316.172 115.465Z" fill="#3F3D56"/>
<path d="M66.3033 31.0353H0V44.1493H66.3033V31.0353Z" fill="#D0CDE1"/>
<path d="M66.3033 51.1585H0V64.2726H66.3033V51.1585Z" fill="#D0CDE1"/>
<path d="M66.3033 71.2818H0V84.3958H66.3033V71.2818Z" fill="#D0CDE1"/>
<path opacity="0.15" d="M27.429 31.0353H0V44.1493H27.429V31.0353Z" fill="black"/>
<path opacity="0.15" d="M8.87991 51.1585H0V64.2726H8.87991V51.1585Z" fill="black"/>
<path opacity="0.15" d="M44.2022 71.2818H0V84.3958H44.2022V71.2818Z" fill="black"/>
<path d="M500 33.9814H433.595V39.8987H500V33.9814Z" fill="#D0CDE1"/>
<path d="M421.869 33.2155H408.719V46.365H421.869V33.2155Z" fill="#00B0FF"/>
<path d="M421.869 52.9397H408.719V66.0892H421.869V52.9397Z" fill="#00B0FF"/>
<path d="M421.869 72.664H408.719V85.8135H421.869V72.664Z" fill="#00B0FF"/>
<path d="M425.502 43.6403H411.444V29.5823H425.502V43.6403ZM412.352 42.732H424.593V30.4906H412.352V42.732Z" fill="#3F3D56"/>
<path d="M500 53.7056H433.595V59.6229H500V53.7056Z" fill="#D0CDE1"/>
<path d="M425.502 63.3644H411.444V49.3067H425.502V63.3644ZM412.352 62.4562H424.593V50.215H412.352V62.4562Z" fill="#3F3D56"/>
<path d="M500 73.4299H433.595V79.3472H500V73.4299Z" fill="#D0CDE1"/>
<path d="M425.502 83.0886H411.444V69.0309H425.502V83.0886ZM412.352 82.1803H424.593V69.9391H412.352V82.1803Z" fill="#3F3D56"/>
<path d="M85.8311 44.9823C89.844 44.9823 93.0972 41.7291 93.0972 37.7161C93.0972 33.7032 89.844 30.45 85.8311 30.45C81.8181 30.45 78.5649 33.7032 78.5649 37.7161C78.5649 41.7291 81.8181 44.9823 85.8311 44.9823Z" fill="#00B0FF"/>
<path d="M85.8311 66.7806C89.844 66.7806 93.0972 63.5275 93.0972 59.5145C93.0972 55.5015 89.844 52.2484 85.8311 52.2484C81.8181 52.2484 78.5649 55.5015 78.5649 59.5145C78.5649 63.5275 81.8181 66.7806 85.8311 66.7806Z" fill="#00B0FF"/>
<path d="M85.8311 86.3083C89.844 86.3083 93.0972 83.0552 93.0972 79.0422C93.0972 75.0292 89.844 71.7761 85.8311 71.7761C81.8181 71.7761 78.5649 75.0292 78.5649 79.0422C78.5649 83.0552 81.8181 86.3083 85.8311 86.3083Z" fill="#00B0FF"/>
<path d="M82.198 43.6198C80.6711 43.6198 79.1785 43.1671 77.9089 42.3187C76.6393 41.4704 75.6498 40.2647 75.0655 38.854C74.4811 37.4433 74.3282 35.891 74.6261 34.3934C74.924 32.8959 75.6593 31.5202 76.739 30.4405C77.8187 29.3608 79.1943 28.6256 80.6919 28.3277C82.1895 28.0298 83.7418 28.1827 85.1524 28.767C86.5631 29.3513 87.7689 30.3409 88.6172 31.6104C89.4655 32.88 89.9183 34.3727 89.9183 35.8996C89.916 37.9464 89.1019 39.9088 87.6545 41.3561C86.2072 42.8034 84.2449 43.6176 82.198 43.6198ZM82.198 29.0876C80.8508 29.0876 79.5337 29.4871 78.4135 30.2356C77.2933 30.9841 76.4202 32.048 75.9046 33.2928C75.389 34.5375 75.2541 35.9071 75.5169 37.2285C75.7798 38.5499 76.4286 39.7637 77.3812 40.7164C78.3339 41.6691 79.5477 42.3178 80.8691 42.5807C82.1905 42.8435 83.5601 42.7086 84.8049 42.193C86.0496 41.6775 87.1135 40.8044 87.862 39.6841C88.6105 38.5639 89.01 37.2469 89.01 35.8996C89.008 34.0936 88.2896 32.3621 87.0126 31.085C85.7355 29.808 84.0041 29.0896 82.198 29.0876Z" fill="#3F3D56"/>
<path d="M82.198 65.4182C80.6711 65.4182 79.1785 64.9654 77.9089 64.1171C76.6393 63.2688 75.6498 62.0631 75.0655 60.6524C74.4811 59.2417 74.3282 57.6894 74.6261 56.1918C74.924 54.6942 75.6593 53.3186 76.739 52.2389C77.8187 51.1592 79.1943 50.4239 80.6919 50.126C82.1895 49.8282 83.7418 49.981 85.1524 50.5654C86.5631 51.1497 87.7689 52.1392 88.6172 53.4088C89.4655 54.6784 89.9183 56.171 89.9183 57.6979C89.916 59.7448 89.1019 61.7071 87.6545 63.1545C86.2072 64.6018 84.2449 65.4159 82.198 65.4182ZM82.198 50.886C80.8508 50.886 79.5337 51.2855 78.4135 52.034C77.2933 52.7825 76.4202 53.8464 75.9046 55.0911C75.389 56.3358 75.2541 57.7055 75.5169 59.0269C75.7798 60.3483 76.4286 61.5621 77.3812 62.5147C78.3339 63.4674 79.5477 64.1162 80.8691 64.379C82.1905 64.6419 83.5601 64.507 84.8049 63.9914C86.0496 63.4758 87.1135 62.6027 87.862 61.4825C88.6105 60.3623 89.01 59.0452 89.01 57.6979C89.008 55.8919 88.2896 54.1605 87.0126 52.8834C85.7355 51.6064 84.0041 50.888 82.198 50.886Z" fill="#3F3D56"/>
<path d="M82.198 84.9459C80.6711 84.9459 79.1785 84.4931 77.9089 83.6448C76.6393 82.7965 75.6498 81.5908 75.0655 80.1801C74.4811 78.7694 74.3282 77.2171 74.6261 75.7195C74.924 74.2219 75.6593 72.8463 76.739 71.7666C77.8187 70.6869 79.1943 69.9516 80.6919 69.6538C82.1895 69.3559 83.7418 69.5087 85.1524 70.0931C86.5631 70.6774 87.7689 71.6669 88.6172 72.9365C89.4655 74.2061 89.9183 75.6987 89.9183 77.2257C89.916 79.2725 89.1019 81.2349 87.6545 82.6822C86.2072 84.1295 84.2449 84.9436 82.198 84.9459ZM82.198 70.4137C80.8508 70.4137 79.5337 70.8132 78.4135 71.5617C77.2933 72.3102 76.4202 73.3741 75.9046 74.6188C75.389 75.8635 75.2541 77.2332 75.5169 78.5546C75.7798 79.876 76.4286 81.0898 77.3812 82.0425C78.3339 82.9951 79.5477 83.6439 80.8691 83.9068C82.1905 84.1696 83.5601 84.0347 84.8049 83.5191C86.0496 83.0035 87.1135 82.1304 87.862 81.0102C88.6105 79.89 89.01 78.5729 89.01 77.2257C89.008 75.4196 88.2896 73.6882 87.0126 72.4111C85.7355 71.1341 84.0041 70.4157 82.198 70.4137Z" fill="#3F3D56"/>
<path d="M449.137 270.686H448.229V263.874C448.229 263.513 448.373 263.167 448.628 262.911C448.884 262.656 449.23 262.512 449.591 262.512H451.862C451.982 262.512 452.098 262.464 452.183 262.379C452.268 262.294 452.316 262.178 452.316 262.058V257.516C452.316 257.396 452.268 257.28 452.183 257.195C452.098 257.11 451.982 257.062 451.862 257.062H449.591C449.23 257.062 448.884 256.918 448.628 256.663C448.373 256.407 448.229 256.061 448.229 255.7V253.429C448.229 253.309 448.181 253.193 448.096 253.108C448.011 253.023 447.895 252.975 447.775 252.975H443.688C443.326 252.975 442.98 252.831 442.725 252.576C442.469 252.32 442.326 251.974 442.325 251.613V251.158C442.325 251.038 442.277 250.923 442.192 250.837C442.107 250.752 441.991 250.704 441.871 250.704H425.522C425.402 250.704 425.286 250.752 425.201 250.837C425.116 250.923 425.068 251.038 425.068 251.158V251.613C425.068 251.974 424.924 252.32 424.669 252.576C424.413 252.831 424.067 252.975 423.706 252.975H419.619C419.498 252.975 419.383 253.023 419.298 253.108C419.212 253.193 419.164 253.309 419.164 253.429V255.7C419.164 256.061 419.02 256.407 418.765 256.663C418.51 256.918 418.163 257.062 417.802 257.062H415.531C415.411 257.062 415.295 257.11 415.21 257.195C415.125 257.28 415.077 257.396 415.077 257.516V262.058C415.077 262.178 415.125 262.294 415.21 262.379C415.295 262.464 415.411 262.512 415.531 262.512H418.256C418.617 262.512 418.964 262.656 419.219 262.911C419.474 263.167 419.618 263.513 419.619 263.874V270.686H418.71V263.874C418.71 263.754 418.662 263.638 418.577 263.553C418.492 263.468 418.377 263.42 418.256 263.42H415.531C415.17 263.42 414.824 263.276 414.568 263.021C414.313 262.765 414.169 262.419 414.169 262.058V257.516C414.169 257.155 414.313 256.809 414.568 256.553C414.824 256.298 415.17 256.154 415.531 256.154H417.802C417.922 256.154 418.038 256.106 418.123 256.021C418.208 255.936 418.256 255.82 418.256 255.7V253.429C418.257 253.068 418.4 252.722 418.656 252.466C418.911 252.211 419.257 252.067 419.619 252.067H423.706C423.826 252.067 423.942 252.019 424.027 251.934C424.112 251.848 424.16 251.733 424.16 251.613V251.158C424.16 250.797 424.304 250.451 424.559 250.196C424.815 249.94 425.161 249.796 425.522 249.796H441.871C442.232 249.796 442.579 249.94 442.834 250.196C443.089 250.451 443.233 250.797 443.233 251.158V251.613C443.234 251.733 443.281 251.848 443.367 251.934C443.452 252.019 443.567 252.067 443.688 252.067H447.775C448.136 252.067 448.482 252.211 448.738 252.466C448.993 252.722 449.137 253.068 449.137 253.429V255.7C449.137 255.82 449.185 255.936 449.27 256.021C449.355 256.106 449.471 256.154 449.591 256.154H451.862C452.223 256.154 452.569 256.298 452.825 256.553C453.08 256.809 453.224 257.155 453.224 257.516V262.058C453.224 262.419 453.08 262.765 452.825 263.021C452.569 263.276 452.223 263.42 451.862 263.42H449.591C449.471 263.42 449.355 263.468 449.27 263.553C449.185 263.638 449.137 263.754 449.137 263.874V270.686Z" fill="#3F3D56"/>
<path d="M447.775 302.475H420.073C419.711 302.475 419.365 302.331 419.11 302.076C418.854 301.821 418.711 301.474 418.71 301.113V281.585H419.618V301.113C419.619 301.233 419.666 301.349 419.752 301.434C419.837 301.519 419.952 301.567 420.073 301.567H447.775C447.895 301.567 448.011 301.519 448.096 301.434C448.181 301.349 448.229 301.233 448.229 301.113V281.585H449.137V301.113C449.137 301.474 448.993 301.821 448.738 302.076C448.482 302.331 448.136 302.475 447.775 302.475Z" fill="#3F3D56"/>
<path d="M453.678 273.865H419.618C419.117 273.865 418.71 274.272 418.71 274.773V283.856C418.71 284.358 419.117 284.764 419.618 284.764H453.678C454.18 284.764 454.587 284.358 454.587 283.856V274.773C454.587 274.272 454.18 273.865 453.678 273.865Z" fill="#00B0FF"/>
<path d="M450.727 282.039H416.667C416.305 282.039 415.959 281.895 415.704 281.64C415.448 281.385 415.305 281.038 415.304 280.677V271.594C415.305 271.233 415.448 270.887 415.704 270.631C415.959 270.376 416.305 270.232 416.667 270.232H450.727C451.088 270.232 451.434 270.376 451.689 270.631C451.945 270.887 452.089 271.233 452.089 271.594V280.677C452.089 281.038 451.945 281.385 451.689 281.64C451.434 281.895 451.088 282.039 450.727 282.039ZM416.667 271.14C416.546 271.14 416.431 271.188 416.346 271.273C416.26 271.359 416.213 271.474 416.212 271.594V280.677C416.213 280.798 416.26 280.913 416.346 280.998C416.431 281.083 416.546 281.131 416.667 281.131H450.727C450.847 281.131 450.962 281.083 451.048 280.998C451.133 280.913 451.181 280.798 451.181 280.677V271.594C451.181 271.474 451.133 271.359 451.048 271.273C450.962 271.188 450.847 271.14 450.727 271.14H416.667Z" fill="#3F3D56"/>
<path d="M432.788 246.617C431.581 238.485 431.262 230.245 431.837 222.043L432.788 208.47C427.547 218.899 428.731 232.626 432.788 246.617V246.617Z" fill="#D0CDE1"/>
<path d="M436.876 248.888C436.294 244.035 436.141 239.14 436.418 234.261L436.876 226.181C434.354 232.389 434.924 240.56 436.876 248.888Z" fill="#D0CDE1"/>
</g>
<defs>
<clipPath id="clip0">
<rect width="500" height="302.475" fill="white"/>
</clipPath>
</defs>
</svg>
