<svg width="250" height="215" viewBox="0 0 250 215" fill="none" xmlns="http://www.w3.org/2000/svg">
<path opacity="0.1" d="M142.527 214.262C197.762 214.262 242.539 209.747 242.539 204.177C242.539 198.607 197.762 194.092 142.527 194.092C87.292 194.092 42.5151 198.607 42.5151 204.177C42.5151 209.747 87.292 214.262 142.527 214.262Z" fill="#00B0FF"/>
<path d="M51.0355 203.083C51.0355 203.083 46.5982 177.942 30.1284 165.483C23.2179 160.254 18.1614 153.144 15.953 145.047C14.9138 141.21 14.2479 137.282 13.9648 133.317" stroke="#535461" stroke-width="2" stroke-miterlimit="10"/>
<path d="M3.63864 125.406C5.01455 128.099 14.2091 133.551 14.2091 133.551C14.2091 133.551 15.3649 123.366 13.9787 120.669C12.5924 117.972 9.16294 116.848 6.30103 118.155C3.43913 119.462 2.2524 122.709 3.63864 125.406Z" fill="#00B0FF"/>
<path d="M2.76153 144.252C5.47896 145.804 16.3281 145.666 16.3281 145.666C16.3281 145.666 11.4332 136.523 8.72612 134.972C6.01901 133.421 2.47946 134.239 0.835241 136.802C-0.808979 139.364 0.0475308 142.701 2.76153 144.252Z" fill="#00B0FF"/>
<path d="M16.249 169.611C19.4205 169.655 28.7114 164.365 28.7114 164.365C28.7114 164.365 19.5994 158.806 16.4244 158.758C13.2495 158.71 10.6387 161.104 10.5768 164.1C10.5149 167.096 13.0741 169.556 16.249 169.611Z" fill="#00B0FF"/>
<path d="M31.0264 186.613C34.1428 187.167 44.2489 183.432 44.2489 183.432C44.2489 183.432 36.2617 176.49 33.1487 175.947C30.0357 175.403 27.0259 177.323 26.4411 180.281C25.8564 183.239 27.9065 186.063 31.0264 186.613Z" fill="#00B0FF"/>
<path d="M27.4524 141.215C26.3688 144.032 17.821 150.348 17.821 150.348C17.821 150.348 15.5576 140.331 16.6411 137.514C17.7246 134.697 21.0234 133.242 24.0057 134.263C26.988 135.285 28.5359 138.401 27.4524 141.215Z" fill="#00B0FF"/>
<path d="M44.469 161.317C42.5427 163.701 32.3884 167.313 32.3884 167.313C32.3884 167.313 33.4204 157.114 35.3329 154.733C36.299 153.579 37.6653 152.831 39.1588 152.639C40.6522 152.448 42.1629 152.827 43.3889 153.701C43.9841 154.112 44.4877 154.641 44.8681 155.255C45.2484 155.87 45.4972 156.557 45.5987 157.272C45.7002 157.988 45.6522 158.717 45.4578 159.413C45.2633 160.109 44.9266 160.758 44.469 161.317Z" fill="#00B0FF"/>
<path d="M58.1662 182.998C56.694 185.654 47.3343 190.834 47.3343 190.834C47.3343 190.834 46.5122 180.621 47.9844 177.966C49.4567 175.31 52.9274 174.285 55.7412 175.675C58.5549 177.065 59.635 180.343 58.1662 182.998Z" fill="#00B0FF"/>
<path opacity="0.25" d="M3.63864 125.406C5.01455 128.099 14.2091 133.551 14.2091 133.551C14.2091 133.551 15.3649 123.366 13.9787 120.669C12.5924 117.972 9.16294 116.848 6.30103 118.155C3.43913 119.462 2.2524 122.709 3.63864 125.406Z" fill="black"/>
<path opacity="0.25" d="M2.76153 144.252C5.47896 145.804 16.3281 145.666 16.3281 145.666C16.3281 145.666 11.4332 136.523 8.72612 134.972C6.01901 133.421 2.47946 134.239 0.835241 136.802C-0.808979 139.364 0.0475308 142.701 2.76153 144.252Z" fill="black"/>
<path opacity="0.25" d="M16.249 169.611C19.4205 169.655 28.7114 164.365 28.7114 164.365C28.7114 164.365 19.5994 158.806 16.4244 158.758C13.2495 158.71 10.6387 161.104 10.5768 164.1C10.5149 167.096 13.0741 169.556 16.249 169.611Z" fill="black"/>
<path opacity="0.25" d="M31.0264 186.613C34.1428 187.167 44.2489 183.432 44.2489 183.432C44.2489 183.432 36.2617 176.49 33.1487 175.947C30.0357 175.403 27.0259 177.323 26.4411 180.281C25.8564 183.239 27.9065 186.063 31.0264 186.613Z" fill="black"/>
<path opacity="0.25" d="M27.4524 141.215C26.3688 144.032 17.821 150.348 17.821 150.348C17.821 150.348 15.5576 140.331 16.6411 137.514C17.7246 134.697 21.0234 133.242 24.0057 134.263C26.988 135.285 28.5359 138.401 27.4524 141.215Z" fill="black"/>
<path opacity="0.25" d="M44.469 161.317C42.5427 163.701 32.3884 167.313 32.3884 167.313C32.3884 167.313 33.4204 157.114 35.3329 154.733C36.299 153.579 37.6653 152.831 39.1588 152.639C40.6522 152.448 42.1629 152.827 43.3889 153.701C43.9841 154.112 44.4877 154.641 44.8681 155.255C45.2484 155.87 45.4972 156.557 45.5987 157.272C45.7002 157.988 45.6522 158.717 45.4578 159.413C45.2633 160.109 44.9266 160.758 44.469 161.317Z" fill="black"/>
<path opacity="0.25" d="M58.1662 182.998C56.694 185.654 47.3343 190.834 47.3343 190.834C47.3343 190.834 46.5122 180.621 47.9844 177.966C49.4567 175.31 52.9274 174.285 55.7412 175.675C58.5549 177.065 59.635 180.343 58.1662 182.998Z" fill="black"/>
<path d="M50.4784 202.423C50.4784 202.423 57.2101 177.739 47.503 160.045C43.4303 152.621 41.8583 144.187 43.3168 135.938C44.017 132.017 45.094 128.171 46.533 124.456" stroke="#535461" stroke-width="2" stroke-miterlimit="10"/>
<path d="M40.4857 113.274C40.5957 116.266 46.6532 124.766 46.6532 124.766C46.6532 124.766 52.0812 115.895 51.9711 112.899C51.8611 109.903 49.2021 107.56 46.0306 107.663C42.8591 107.767 40.3722 110.278 40.4857 113.274Z" fill="#00B0FF"/>
<path d="M31.5973 130.17C33.4135 132.626 43.3889 136.65 43.3889 136.65C43.3889 136.65 42.8385 126.421 41.0223 123.961C40.1037 122.77 38.7691 121.969 37.2855 121.72C35.802 121.471 34.279 121.791 33.0214 122.616C32.4102 123 31.8849 123.506 31.4785 124.102C31.0721 124.699 30.7932 125.373 30.6595 126.082C30.5258 126.791 30.5401 127.52 30.7015 128.224C30.8629 128.927 31.1678 129.59 31.5973 130.17Z" fill="#00B0FF"/>
<path d="M33.0421 158.503C35.9247 159.759 46.6912 158.479 46.6912 158.479C46.6912 158.479 40.7438 149.907 37.8613 148.652C34.9787 147.396 31.5664 148.583 30.2352 151.304C28.904 154.025 30.163 157.248 33.0421 158.503Z" fill="#00B0FF"/>
<path d="M39.2509 179.71C41.8686 181.409 52.7074 181.86 52.7074 181.86C52.7074 181.86 48.3801 172.466 45.7659 170.77C44.506 169.949 42.9825 169.635 41.5006 169.89C40.0188 170.145 38.6881 170.951 37.7753 172.146C37.3464 172.729 37.0432 173.395 36.8847 174.102C36.7263 174.809 36.7161 175.54 36.8547 176.251C36.9934 176.962 37.2779 177.636 37.6904 178.232C38.1028 178.827 38.6342 179.33 39.2509 179.71Z" fill="#00B0FF"/>
<path d="M55.4728 136.84C53.2714 139 42.7456 141.507 42.7456 141.507C42.7456 141.507 44.978 131.48 47.1761 129.32C48.2638 128.278 49.7043 127.683 51.2106 127.655C52.7169 127.627 54.1785 128.168 55.3043 129.169C55.8453 129.646 56.2816 130.229 56.5857 130.883C56.8897 131.537 57.0549 132.246 57.0707 132.967C57.0865 133.688 56.9527 134.404 56.6777 135.071C56.4027 135.737 55.9924 136.34 55.4728 136.84Z" fill="#00B0FF"/>
<path d="M62.3869 161.727C59.6041 163.168 48.7722 162.586 48.7722 162.586C48.7722 162.586 54.0798 153.643 56.8626 152.212C59.6454 150.781 63.1402 151.734 64.6641 154.362C66.1879 156.99 65.1835 160.285 62.3869 161.727Z" fill="#00B0FF"/>
<path d="M65.6169 186.789C63.1299 188.653 52.3496 189.809 52.3496 189.809C52.3496 189.809 55.982 180.154 58.469 178.289C59.6779 177.392 61.1808 176.984 62.6774 177.147C64.174 177.309 65.5541 178.031 66.5422 179.166C67.0094 179.716 67.3577 180.356 67.5653 181.047C67.7728 181.738 67.8351 182.464 67.7482 183.18C67.6612 183.896 67.427 184.587 67.0602 185.208C66.6934 185.829 66.202 186.367 65.6169 186.789Z" fill="#00B0FF"/>
<path d="M229.846 43.9309C229.915 43.9309 229.97 43.8755 229.97 43.8071C229.97 43.7387 229.915 43.6832 229.846 43.6832C229.778 43.6832 229.722 43.7387 229.722 43.8071C229.722 43.8755 229.778 43.9309 229.846 43.9309Z" fill="#E6E8EC"/>
<path d="M164.576 1.95165L74.6223 60.3112L133.326 166.188C133.6 166.683 133.974 167.116 134.424 167.459C134.874 167.803 135.39 168.049 135.94 168.183L189.13 181.158C190.041 181.378 191 181.28 191.848 180.879C192.695 180.477 193.38 179.798 193.787 178.953L220.17 124.14L249.085 85.487L180.468 4.30791C178.559 2.04998 175.892 0.565223 172.967 0.131523C170.042 -0.302177 167.059 0.344898 164.576 1.95165Z" fill="#DCDFED"/>
<path opacity="0.1" d="M250 85.9445L249.745 86.2885L232.808 108.933L232.502 109.342L221.085 124.604L198.52 171.492L197.887 172.803L194.702 179.417C194.294 180.263 193.609 180.944 192.76 181.345C191.911 181.747 190.95 181.844 190.037 181.622L136.848 168.641C136.298 168.507 135.782 168.261 135.332 167.917C134.882 167.574 134.508 167.141 134.234 166.645L129.119 157.437L128.2 155.779L91.2811 89.1641L90.9646 88.5966L75.5337 60.7686L77.3981 59.5578L91.5322 50.3908L91.8589 50.1775L121.623 30.8665L123.502 29.6488L165.484 2.40911C167.967 0.799304 170.951 0.150129 173.878 0.583268C176.805 1.01641 179.473 2.50213 181.383 4.76194L212.685 41.8085L214.061 43.4596L236.781 70.3381L236.905 70.486L248.328 83.9975L249.766 85.7002L250 85.9445Z" fill="black"/>
<path opacity="0.1" d="M236.024 70.0285L233.252 89.2913L232.416 95.1046L231.938 107.488L231.9 108.454L229.413 173.157C229.389 173.757 229.233 174.345 228.957 174.878C228.681 175.412 228.292 175.879 227.816 176.245C227.34 176.612 226.789 176.869 226.202 176.999C225.616 177.13 225.008 177.13 224.422 176.999L197.612 171.014L197.323 170.949L128.565 155.604L127.303 155.322L89.5027 146.88L90.3695 88.7066L90.397 86.7631L90.6585 69.1548L90.9474 49.72L120.712 30.409L122.59 29.1913C150.198 32.0222 186.914 37.4674 211.787 41.351L213.163 43.002L235.866 69.8806L236.024 70.0285Z" fill="black"/>
<path d="M239.165 47.1883L235.9 69.8909L232.908 90.681L232.072 96.4805L231.594 108.864L229.069 174.533C229.045 175.133 228.889 175.721 228.613 176.254C228.337 176.788 227.948 177.255 227.472 177.621C226.996 177.987 226.445 178.245 225.858 178.375C225.272 178.506 224.664 178.505 224.078 178.375L196.979 172.325L128.221 156.98L89.1587 148.256L90.053 88.139L90.3145 70.5307L90.6206 49.9332L90.9336 28.7476C97.3936 28.4414 108.023 29.1328 120.712 30.409C149.125 33.2606 187.857 39.0291 213.18 43.0021C228.687 45.434 239.165 47.1883 239.165 47.1883Z" fill="#00B0FF"/>
<path opacity="0.1" d="M247.448 83.5401L232.908 90.6708L158.701 127.064L90.3146 70.5445L76.4901 59.1003L74.6257 60.3111L90.0566 88.1391L89.1623 148.256L128.225 156.98L133.329 166.188C133.603 166.683 133.977 167.116 134.427 167.46C134.877 167.803 135.393 168.049 135.943 168.183L189.133 181.158C190.044 181.378 191.003 181.278 191.849 180.877C192.696 180.476 193.38 179.797 193.787 178.953L196.972 172.338L224.071 178.389C224.657 178.519 225.265 178.519 225.852 178.389C226.438 178.259 226.989 178.001 227.465 177.635C227.941 177.268 228.331 176.802 228.607 176.268C228.883 175.735 229.038 175.147 229.062 174.547L231.587 108.878L248.831 85.831L248.879 85.2496L247.448 83.5401Z" fill="black"/>
<path d="M74.6223 60.3112L68.4892 165.338C68.4324 166.31 68.7234 167.271 69.3102 168.048C69.897 168.825 70.7411 169.368 71.6916 169.58L234.573 205.749C235.144 205.874 235.735 205.876 236.307 205.753C236.878 205.631 237.417 205.388 237.888 205.041C238.358 204.693 238.748 204.249 239.032 203.738C239.317 203.227 239.488 202.661 239.536 202.079L249.082 85.487L158.701 129.816L74.6223 60.3112Z" fill="#DCDFED"/>
<path opacity="0.1" d="M69.6103 167.743L154.229 115.537C155.482 114.777 156.963 114.485 158.411 114.711C159.859 114.938 161.18 115.669 162.141 116.775L237.878 205.106C238.153 205.422 238.287 205.195 237.878 205.106L69.6103 167.743C69.1288 167.636 69.1907 167.994 69.6103 167.743Z" fill="black"/>
<path d="M70.2159 167.657L153.961 117.068C155.285 116.268 156.849 115.961 158.377 116.202C159.904 116.442 161.298 117.214 162.313 118.382L237.366 204.696C237.49 204.84 237.566 205.019 237.583 205.208C237.599 205.397 237.556 205.587 237.459 205.75C237.362 205.914 237.216 206.042 237.042 206.118C236.868 206.194 236.674 206.213 236.489 206.172L70.4876 169.311C70.3108 169.273 70.1497 169.182 70.025 169.051C69.9004 168.92 69.8181 168.755 69.7888 168.576C69.7595 168.398 69.7845 168.215 69.8607 168.051C69.9369 167.887 70.0606 167.749 70.2159 167.657Z" fill="#E3E5F1"/>
</svg>
